<svg xmlns="http://www.w3.org/2000/svg" viewBox="0 0 300 320">
  
  <!-- Lab coat -->
  <path d="M125 140 L115 240 L120 280 L180 280 L185 240 L175 140 Z" fill="white" stroke="#333" stroke-width="2" />
  <path d="M125 140 L100 150 L95 200 L115 240" fill="white" stroke="#333" stroke-width="2" />
  <path d="M175 140 L200 150 L205 200 L185 240" fill="white" stroke="#333" stroke-width="2" />
  
  <!-- Shirt underneath -->
  <rect x="130" y="140" width="40" height="70" fill="#91C4F2" rx="5" ry="5" />
  
  <!-- Neck -->
  <path d="M140 120 L140 140 L160 140 L160 120" fill="#FFD6BA" />
  
  <!-- Head -->
  <circle cx="150" cy="90" r="40" fill="#FFD6BA" />
  
  <!-- Hair - very short male option, completely off face -->
  <path d="M150 50 C125 50, 115 52, 115 65 C115 75, 125 80, 135 80 L150 80 L165 80 C175 80, 185 75, 185 65 C185 52, 175 50, 150 50" fill="#8B4513" />
  
  <!-- Eyes -->
  <ellipse cx="135" cy="85" rx="5" ry="7" fill="white" />
  <ellipse cx="165" cy="85" rx="5" ry="7" fill="white" />
  <circle cx="135" cy="85" r="2.5" fill="#333" />
  <circle cx="165" cy="85" r="2.5" fill="#333" />
  
  <!-- Glasses -->
  <circle cx="135" cy="85" r="10" fill="none" stroke="#333" stroke-width="1.5" />
  <circle cx="165" cy="85" r="10" fill="none" stroke="#333" stroke-width="1.5" />
  <line x1="145" y1="85" x2="155" y2="85" stroke="#333" stroke-width="1.5" />
  <line x1="120" y1="80" x2="125" y2="82" stroke="#333" stroke-width="1.5" />
  <line x1="175" y1="82" x2="180" y2="80" stroke="#333" stroke-width="1.5" />
  
  <!-- Eyebrows -->
  <path d="M130 75 C133 72, 140 73, 143 75" fill="none" stroke="#333" stroke-width="1.5" />
  <path d="M157 75 C160 73, 167 72, 170 75" fill="none" stroke="#333" stroke-width="1.5" />
  
  <!-- Mouth - friendly smile -->
  <path d="M140 105 C145 115, 155 115, 160 105" fill="none" stroke="#333" stroke-width="1.5" />

  
 

</svg>